HIERARCHY
ROOT root
{
	OFFSET 0.000000 0.000000 0.000000
	CHANNELS 6 Xposition Yposition Zposition Zrotation Yrotation Xrotation
	JOINT lhip
	{
		OFFSET 0.058581 -0.082280 -0.017664
		CHANNELS 3 Zrotation Yrotation Xrotation
		JOINT lknee
		{
			OFFSET 0.043451 -0.386469 0.008037
			CHANNELS 3 Zrotation Yrotation Xrotation
			JOINT lankle
			{
				OFFSET -0.014790 -0.426874 -0.037428
				CHANNELS 3 Zrotation Yrotation Xrotation
				JOINT ltoe
				{
					OFFSET 0.041054 -0.060286 0.122042
					CHANNELS 3 Zrotation Yrotation Xrotation
					End Site
					{
						OFFSET 0.000000 0.000000 0.000000
					}
				}
			}
		}
	}
	JOINT rhip
	{
		OFFSET -0.060310 -0.090513 -0.013543
		CHANNELS 3 Zrotation Yrotation Xrotation
		JOINT rknee
		{
			OFFSET -0.043257 -0.383688 -0.004843
			CHANNELS 3 Zrotation Yrotation Xrotation
			JOINT rankle
			{
				OFFSET 0.019056 -0.420046 -0.034562
				CHANNELS 3 Zrotation Yrotation Xrotation
				JOINT rtoe
				{
					OFFSET -0.034840 -0.062106 0.130323
					CHANNELS 3 Zrotation Yrotation Xrotation
					End Site
					{
						OFFSET 0.000000 0.000000 0.000000
					}
				}
			}
		}
	}
	JOINT lowerback
	{
		OFFSET 0.004439 0.124404 -0.038385
		CHANNELS 3 Zrotation Yrotation Xrotation
		JOINT upperback
		{
			OFFSET 0.004488 0.137956 0.026820
			CHANNELS 3 Zrotation Yrotation Xrotation
			JOINT chest
			{
				OFFSET -0.002265 0.056032 0.002855
				CHANNELS 3 Zrotation Yrotation Xrotation
				JOINT lowerneck
				{
					OFFSET -0.013390 0.211636 -0.033468
					CHANNELS 3 Zrotation Yrotation Xrotation
					JOINT upperneck
					{
						OFFSET 0.010113 0.088937 0.050410
						CHANNELS 3 Zrotation Yrotation Xrotation
						End Site
						{
							OFFSET 0.000000 0.000000 0.000000
						}
					}
				}
				JOINT lclavicle
				{
					OFFSET 0.071702 0.114000 -0.018898
					CHANNELS 3 Zrotation Yrotation Xrotation
					JOINT lshoulder
					{
						OFFSET 0.122921 0.045205 -0.019046
						CHANNELS 3 Zrotation Yrotation Xrotation
						JOINT lelbow
						{
							OFFSET 0.255332 -0.015649 -0.022946
							CHANNELS 3 Zrotation Yrotation Xrotation
							JOINT lwrist
							{
								OFFSET 0.265709 0.012698 -0.007375
								CHANNELS 3 Zrotation Yrotation Xrotation
								End Site
								{
									OFFSET 0.000000 0.000000 0.000000
								}
							}
						}
					}
				}
				JOINT rclavicle
				{
					OFFSET -0.082954 0.112472 -0.023707
					CHANNELS 3 Zrotation Yrotation Xrotation
					JOINT rshoulder
					{
						OFFSET -0.113228 0.046853 -0.008472
						CHANNELS 3 Zrotation Yrotation Xrotation
						JOINT relbow
						{
							OFFSET -0.260127 -0.014369 -0.031269
							CHANNELS 3 Zrotation Yrotation Xrotation
							JOINT rwrist
							{
								OFFSET -0.269108 0.006794 -0.006027
								CHANNELS 3 Zrotation Yrotation Xrotation
								End Site
								{
									OFFSET 0.000000 0.000000 0.000000
								}
							}
						}
					}
				}
			}
		}
	}
}
MOTION
Frames: 17
Frame Time: 0.033333
-1.701310 0.304272 0.956425 96.476155 -0.033360 83.782261 3.207515 5.603855 21.406601 -5.644076 -21.733296 18.181711 -0.394096 3.227895 -12.778068 0.000000 -0.000000 0.000000 -0.068107 -0.977208 -23.274873 -0.928885 -7.405174 13.124332 8.269438 -8.887879 -0.316100 0.000000 -0.000000 0.000000 -1.420957 -7.186007 15.610793 2.305384 -0.751270 -3.429224 1.948107 -4.075696 1.979580 1.795681 6.404165 -10.599749 -3.471651 -0.356597 11.839739 -27.985274 2.348537 -2.187059 -48.860258 -14.563061 9.057704 5.996523 -34.437960 7.172781 1.423232 -3.023313 1.931041 34.558074 -2.300113 -2.437915 50.420764 2.000429 13.738327 -11.272197 19.718889 -9.626079 5.239123 1.162883 -1.120351 
-1.650969 0.299240 0.962565 96.011147 0.938711 84.433492 3.644027 4.372324 19.282285 -6.885315 -21.312375 25.295520 -4.234524 2.788581 -4.271136 0.000000 -0.000000 0.000000 0.630528 0.245984 -22.909291 0.515240 -6.248096 16.458231 5.959530 -8.403200 1.391520 0.000000 -0.000000 0.000000 0.047351 -7.115154 13.186576 2.828829 -0.854805 -2.811082 1.235539 -3.949744 1.770706 1.495936 5.815456 -9.193219 -3.218646 0.027487 11.134770 -28.756648 3.285797 -1.836541 -49.403906 -13.692344 9.618792 6.729447 -33.680893 7.137314 -0.035293 -2.731209 1.417993 33.944615 -2.867346 -2.258837 50.812649 1.962489 13.787269 -11.066817 18.126517 -8.790134 5.866510 0.806960 -2.151300 
-1.603247 0.293121 0.969045 94.471983 1.334669 83.876678 3.574869 3.849819 16.566917 -8.788710 -19.653492 34.164499 -6.613805 1.184592 8.137908 0.000000 -0.000000 0.000000 2.200204 0.818725 -20.776350 0.368900 -6.023928 19.083060 2.146414 -6.982765 0.029962 0.000000 -0.000000 0.000000 0.358339 -6.679439 12.903879 2.968345 -0.479880 -2.489286 1.056282 -3.567795 1.151984 1.259695 5.834386 -8.104815 -2.842515 0.287669 10.806857 -28.822956 3.782701 -1.212062 -49.919703 -12.411168 9.640260 6.958365 -32.873091 6.819838 -1.545032 -2.484477 0.606823 33.284267 -2.395108 -0.919838 51.370672 2.264294 13.234004 -11.233097 17.063122 -8.617794 6.954805 0.787351 -3.273074 
-1.549056 0.287573 0.975919 93.841681 1.668326 84.022844 3.032878 3.027123 9.417398 -11.584812 -17.248974 46.577356 -6.105168 0.786097 18.645371 0.000000 -0.000000 0.000000 3.844302 1.047635 -17.614315 0.587465 -4.118000 19.827035 -2.468960 -7.663875 -1.608811 0.000000 -0.000000 0.000000 0.670324 -5.320057 12.384820 3.358050 -0.704572 -2.258226 0.882893 -3.406984 0.796454 1.181917 4.565066 -8.055242 -2.408038 0.723512 10.382308 -29.477876 3.532148 -0.539527 -49.649192 -11.207592 9.706527 5.823752 -31.995006 8.075722 -2.745221 -1.403207 -0.507446 33.167560 -1.823770 -0.735912 50.606786 2.286390 13.212904 -10.939686 17.183727 -8.328638 7.336844 0.497043 -4.329516 
-1.518340 0.285014 0.980446 92.753467 1.617506 83.875597 2.289718 2.225580 5.159767 -11.788770 -13.670437 52.467748 -5.988219 2.467613 20.540394 0.000000 -0.000000 0.000000 4.767723 1.357180 -15.318577 0.187745 -3.271071 19.772228 -3.086392 -7.274392 -3.092825 0.000000 -0.000000 0.000000 0.684232 -4.234822 12.504369 3.276702 -0.526614 -2.642301 0.797760 -3.137422 0.927239 1.413113 4.423833 -8.168580 -2.240744 0.715852 10.816514 -29.672778 3.642502 -0.776118 -49.606578 -10.461033 10.019664 4.720351 -31.156041 9.247038 -3.107922 -1.322967 -0.177468 33.128349 -1.695033 -0.816892 50.161784 2.809881 13.556077 -10.549688 17.197196 -7.719777 6.790084 0.144513 -4.421027 
-1.476773 0.281891 0.987530 91.006134 1.481401 83.127163 2.038667 2.120491 1.040614 -10.250244 -9.156067 56.444031 -3.478069 3.084884 13.365302 0.000000 -0.000000 0.000000 5.744069 1.306908 -10.927491 0.182193 -1.206612 18.117625 -2.597080 -7.326079 -4.666354 0.000000 -0.000000 0.000000 0.543167 -2.843965 13.073407 3.029340 -0.278976 -3.008143 0.747810 -2.291812 1.695697 1.901805 3.917978 -8.997288 -2.159644 0.713219 11.103607 -29.740610 4.399906 -1.391502 -50.120946 -9.526498 9.921946 3.560273 -30.755505 11.835021 -4.276965 -1.119744 0.956240 32.885712 -1.628138 -1.808537 49.778142 3.519411 13.751211 -10.011478 17.981478 -6.364731 7.839384 0.456490 -3.616320 
-1.436539 0.280275 0.993472 89.912593 1.089325 82.718761 1.533403 1.504964 -3.595841 -9.026895 -5.713263 58.582098 -1.626244 4.773092 6.516265 0.000000 -0.000000 0.000000 5.992641 0.450599 -6.804962 0.123782 0.511059 16.270945 -2.570382 -7.375226 -6.023130 0.000000 -0.000000 0.000000 0.714326 -1.229672 13.297247 2.675134 -0.602968 -3.537385 0.483857 -1.938543 1.858744 1.929823 3.109635 -7.913699 -2.026777 0.701387 10.964143 -29.699152 4.377200 -0.970729 -50.814785 -7.901380 9.873751 3.673316 -30.684562 12.550026 -4.111361 -0.635574 0.260314 31.643272 -0.969116 -1.411909 50.610254 4.187725 13.453144 -10.016205 18.065188 -6.199515 7.320901 -0.453428 -5.096413 
-1.397542 0.278069 0.998144 88.266203 0.576453 82.327644 1.331973 1.590790 -7.630457 -7.834645 -3.036216 58.014891 -0.198679 5.728545 1.656218 0.000000 -0.000000 0.000000 6.091996 -0.481627 -3.028744 -0.008106 2.859522 15.032647 -1.684891 -6.692297 -8.834526 0.000000 -0.000000 0.000000 0.410154 0.475128 14.132282 2.239732 -0.307694 -4.479573 0.415669 -1.181318 2.365946 2.302410 2.995647 -8.600267 -2.045330 0.395518 11.272663 -29.661423 5.083790 -1.573371 -51.106742 -6.763571 9.752938 2.243187 -30.581420 13.789323 -3.153094 -0.392859 0.341557 31.434980 -1.127524 -2.339756 50.105888 4.884406 13.362975 -9.414382 19.231268 -5.940525 6.768631 0.065561 -5.563162 
-1.359406 0.277250 0.999995 87.143862 -0.168666 81.983330 0.977635 0.830102 -11.512915 -7.039059 -0.890278 55.494043 1.006110 6.565037 -1.864857 0.000000 -0.000000 0.000000 5.314201 -1.546518 0.906589 -0.131870 4.283013 12.928801 -1.443056 -6.947533 -9.889323 0.000000 -0.000000 0.000000 0.263173 1.986131 14.544216 1.687574 -0.421059 -4.647823 0.157908 -0.754421 2.636584 2.333333 2.905349 -8.630060 -2.124100 0.041918 10.923999 -29.818871 5.451026 -1.584961 -50.975202 -5.629316 9.353286 1.862249 -30.098286 14.609886 -3.528586 -0.246775 0.450525 30.940734 -0.677748 -2.189276 49.968280 6.027311 13.296394 -9.518246 21.288466 -5.881889 5.932232 0.325488 -5.411522 
-1.312908 0.276844 0.999169 86.016109 -0.827691 81.898457 1.052532 -0.315936 -15.428614 -5.779425 1.484723 48.640841 1.431259 8.583561 -4.867707 0.000000 -0.000000 0.000000 4.301085 -2.326447 4.644364 -0.123557 5.888490 12.315962 -1.226510 -6.798390 -12.162089 0.000000 -0.000000 0.000000 0.381445 3.598824 14.624406 1.114063 -0.438920 -4.653429 -0.220820 -0.072762 2.568238 2.203181 2.595249 -8.099586 -2.129633 -0.534704 10.613391 -29.800817 5.516907 -1.195538 -51.250708 -3.721721 9.760267 2.087236 -31.199592 14.310945 -1.807079 -0.113656 -0.565547 30.269669 0.399534 -1.362676 49.710115 6.607409 13.607400 -10.410661 24.402892 -6.195089 3.706545 1.207135 -5.427706 
-1.275408 0.276789 0.996190 85.134983 -1.055504 81.622395 1.480567 -0.622214 -17.086605 -5.058347 2.375288 41.131399 1.744510 9.916595 -6.077730 0.000000 -0.000000 0.000000 3.598708 -3.197944 7.882004 -0.161040 7.109784 11.466429 -1.365119 -6.899519 -13.715304 0.000000 -0.000000 0.000000 0.817413 4.655074 14.915389 0.618983 -0.216229 -4.262408 -0.540451 0.456294 2.720345 2.182228 2.587324 -8.404520 -2.418430 -1.284277 10.357412 -30.003772 5.639345 -1.354876 -51.155686 -2.884756 9.486619 2.331219 -30.409624 13.898356 -2.031296 -0.554729 -1.065469 29.695566 0.937186 -1.245908 49.396666 7.486407 13.548636 -10.707154 26.207979 -6.448517 3.384976 1.719067 -5.751012 
-1.238721 0.276799 0.991380 84.526470 -1.116194 81.973341 1.762268 -0.452745 -18.303177 -4.162723 2.412427 31.158768 1.524233 10.834797 -5.764236 0.000000 -0.000000 0.000000 2.997464 -3.765349 10.016302 -0.096108 7.843662 11.544390 -1.371942 -6.459229 -16.087015 0.000000 -0.000000 0.000000 1.112979 5.396151 14.374867 0.330890 0.046276 -3.488426 -0.705371 0.912220 2.610551 2.144285 2.930565 -8.663882 -2.817062 -1.970522 9.858042 -30.287103 5.622141 -1.592718 -51.213195 -2.065120 9.583520 2.709893 -29.758512 13.013204 -1.993004 -0.679564 -1.097948 29.239811 1.693234 -0.912537 48.844759 8.445682 13.359384 -11.126228 27.448880 -7.071051 3.080707 2.108230 -5.819216 
-1.200528 0.277300 0.985970 83.987467 -0.898912 82.334974 2.028338 -0.276698 -18.580697 -3.352895 1.131335 20.105119 0.086769 10.114478 -4.667869 0.000000 -0.000000 0.000000 2.439108 -4.241858 13.014245 0.125185 8.843890 10.208831 -1.179461 -6.288466 -17.538701 0.000000 -0.000000 0.000000 1.723256 5.799147 13.915613 -0.069407 0.349622 -2.970746 -0.860667 1.434716 2.351019 2.220743 3.347097 -8.537410 -3.173200 -2.692331 9.797566 -30.391767 5.953241 -1.680021 -51.371496 -1.137135 9.846774 2.958459 -29.208654 12.532659 -1.859285 -1.000590 -0.939048 28.945291 2.052190 -0.726097 48.386967 9.128382 13.272154 -11.271361 28.195822 -7.042600 2.660660 2.519118 -5.592241 
-1.162631 0.278779 0.979644 83.468090 -0.760222 83.144809 1.935071 0.077290 -18.585458 -2.275565 -0.471073 9.098932 0.285739 9.581679 -5.377111 0.000000 -0.000000 0.000000 1.811360 -4.714232 14.817573 0.181602 9.581886 10.278392 -0.425084 -5.794009 -19.199919 0.000000 -0.000000 0.000000 2.005799 6.135500 13.262216 -0.347601 0.800865 -2.760058 -0.889300 1.838930 2.234542 2.339722 4.056462 -8.723070 -3.499444 -2.991353 10.235301 -30.417734 6.514552 -2.158781 -51.651453 -0.244707 10.162082 2.797539 -28.371861 12.635883 -1.229184 -1.219179 -0.987959 28.863450 2.074384 -0.939047 47.864094 9.753956 13.267006 -11.234963 28.407524 -6.648387 1.966256 3.370469 -5.058410 
-1.122204 0.280173 0.973126 82.594469 -0.559057 83.703557 2.083397 0.841387 -18.190182 -1.662944 -0.719716 0.347423 -1.997203 7.802639 -6.237121 0.000000 -0.000000 0.000000 0.808371 -5.114434 16.860539 0.566590 10.205691 10.559885 0.522603 -4.965656 -20.070046 0.000000 -0.000000 0.000000 2.348913 6.614796 12.741864 -0.487150 1.257116 -2.497376 -0.928291 2.295420 1.833964 2.440155 4.489873 -8.814407 -3.960597 -3.737205 10.290799 -30.648025 6.931184 -2.273589 -51.667224 0.582606 10.156913 2.667562 -27.426683 12.290172 -0.902080 -1.034531 -0.489531 28.956275 2.286408 -0.684360 47.364940 10.278355 12.959918 -11.429089 28.253501 -6.985208 1.791649 3.719882 -4.501854 
-1.079540 0.282881 0.966745 81.381447 -0.726662 83.975356 2.310169 -0.067357 -18.212905 -1.799080 0.729092 -1.009787 -1.949181 8.633050 -7.099203 0.000000 -0.000000 0.000000 -0.572034 -4.927085 18.418003 0.881044 11.754225 12.442951 1.258674 -4.366417 -20.682761 0.000000 -0.000000 0.000000 2.572869 7.489076 12.481558 -0.562863 1.442811 -2.315635 -1.186562 2.756397 1.820693 2.419041 4.467515 -8.920956 -4.234159 -3.848977 10.113550 -30.857491 7.180209 -2.123480 -51.677934 1.340098 10.237586 2.926553 -27.077678 12.168145 -1.307635 -1.375820 -0.482058 29.032653 2.591703 -0.497422 47.104245 10.783633 12.779529 -11.707323 27.777560 -7.588920 1.811774 3.397095 -4.172073 
-1.035469 0.286976 0.962830 81.219379 -1.097225 83.897537 1.759508 -1.731240 -19.204475 -2.426687 0.880130 4.894631 -1.912485 9.900587 -7.685346 0.000000 -0.000000 0.000000 -1.490612 -4.496706 19.493350 0.572063 11.982035 15.757776 2.984632 -4.046066 -19.678548 0.000000 -0.000000 0.000000 2.477342 8.068853 12.868163 -0.601708 1.541995 -2.650045 -1.279523 2.706310 1.899123 2.438640 4.291506 -9.434785 -4.428396 -3.601198 10.324040 -30.888012 7.728673 -2.462221 -51.831753 1.932642 10.279864 2.787308 -26.147464 12.116652 -1.447667 -1.110616 -0.711500 29.436963 2.305578 -0.882967 46.793031 10.784500 12.936986 -11.659636 27.014046 -7.965827 1.739522 3.682615 -3.948406 
